<svg viewBox="0 0 27 27" fill="none" xmlns="http://www.w3.org/2000/svg"><path d="M19.691 0H7.31C3.279 0 0 3.279 0 7.309v12.383C0 23.722 3.279 27 7.309 27h12.383C23.722 27 27 23.721 27 19.692V7.309C27 3.279 23.721 0 19.691 0zM13.5 20.883c-4.07 0-7.383-3.312-7.383-7.383 0-4.07 3.312-7.383 7.383-7.383 4.07 0 7.383 3.312 7.383 7.383 0 4.07-3.312 7.383-7.383 7.383zm7.56-13.025a2.184 2.184 0 01-2.182-2.181c0-1.203.978-2.182 2.181-2.182s2.182.979 2.182 2.182a2.184 2.184 0 01-2.182 2.181z" fill="#fff"/><path d="M13.5 7.7a5.806 5.806 0 00-5.8 5.8c0 3.198 2.602 5.8 5.8 5.8s5.8-2.602 5.8-5.8-2.602-5.8-5.8-5.8zm7.558-2.621a.6.6 0 10.002 1.198.6.6 0 00-.002-1.198z" fill="#fff"/></svg>